<svg width="32" height="32" viewBox="0 0 32 32" fill="none" xmlns="http://www.w3.org/2000/svg">
<g id="uil:instagram">
<path id="Vector" d="M23.12 7.28C22.8035 7.28 22.4942 7.37384 22.231 7.54965C21.9679 7.72546 21.7628 7.97534 21.6418 8.2677C21.5207 8.56007 21.489 8.88177 21.5507 9.19214C21.6124 9.50251 21.7648 9.7876 21.9886 10.0114C22.2124 10.2351 22.4974 10.3875 22.8078 10.4493C23.1182 10.511 23.4399 10.4793 23.7323 10.3582C24.0246 10.2371 24.2745 10.032 24.4503 9.76891C24.6261 9.50579 24.72 9.19645 24.72 8.88C24.72 8.45565 24.5514 8.04868 24.2513 7.74863C23.9513 7.44857 23.5443 7.28 23.12 7.28ZM29.2533 10.5067C29.2274 9.40039 29.0202 8.30587 28.64 7.26666C28.3009 6.37751 27.7733 5.57237 27.0933 4.90666C26.4331 4.22323 25.626 3.6989 24.7333 3.37333C23.6968 2.98155 22.6011 2.76961 21.4933 2.74666C20.08 2.66666 19.6266 2.66666 16 2.66666C12.3733 2.66666 11.92 2.66666 10.5066 2.74666C9.39883 2.76961 8.30308 2.98155 7.26663 3.37333C6.37553 3.7022 5.5692 4.22608 4.90663 4.90666C4.22319 5.5669 3.69886 6.37392 3.37329 7.26666C2.98151 8.30312 2.76957 9.39887 2.74663 10.5067C2.66663 11.92 2.66663 12.3733 2.66663 16C2.66663 19.6267 2.66663 20.08 2.74663 21.4933C2.76957 22.6011 2.98151 23.6969 3.37329 24.7333C3.69886 25.6261 4.22319 26.4331 4.90663 27.0933C5.5692 27.7739 6.37553 28.2978 7.26663 28.6267C8.30308 29.0184 9.39883 29.2304 10.5066 29.2533C11.92 29.3333 12.3733 29.3333 16 29.3333C19.6266 29.3333 20.08 29.3333 21.4933 29.2533C22.6011 29.2304 23.6968 29.0184 24.7333 28.6267C25.626 28.3011 26.4331 27.7768 27.0933 27.0933C27.7763 26.4301 28.3044 25.6243 28.64 24.7333C29.0202 23.6941 29.2274 22.5996 29.2533 21.4933C29.2533 20.08 29.3333 19.6267 29.3333 16C29.3333 12.3733 29.3333 11.92 29.2533 10.5067ZM26.8533 21.3333C26.8436 22.1797 26.6903 23.0183 26.4 23.8133C26.1871 24.3936 25.8451 24.9179 25.4 25.3467C24.9675 25.7873 24.4443 26.1286 23.8666 26.3467C23.0716 26.637 22.233 26.7903 21.3866 26.8C20.0533 26.8667 19.56 26.88 16.0533 26.88C12.5466 26.88 12.0533 26.88 10.72 26.8C9.84115 26.8165 8.96609 26.6811 8.13329 26.4C7.581 26.1708 7.08177 25.8304 6.66663 25.4C6.22408 24.9717 5.88642 24.4469 5.67996 23.8667C5.35443 23.0602 5.17388 22.2026 5.14663 21.3333C5.14663 20 5.06663 19.5067 5.06663 16C5.06663 12.4933 5.06663 12 5.14663 10.6667C5.1526 9.8014 5.31056 8.94392 5.61329 8.13333C5.84802 7.57055 6.20831 7.06887 6.66663 6.66666C7.07171 6.20822 7.57234 5.84413 8.13329 5.6C8.94603 5.30672 9.80262 5.15344 10.6666 5.14666C12 5.14666 12.4933 5.06666 16 5.06666C19.5066 5.06666 20 5.06666 21.3333 5.14666C22.1797 5.15637 23.0182 5.30966 23.8133 5.6C24.4192 5.82487 24.963 6.19046 25.4 6.66666C25.8369 7.07623 26.1783 7.57697 26.4 8.13333C26.6963 8.94524 26.8497 9.80237 26.8533 10.6667C26.92 12 26.9333 12.4933 26.9333 16C26.9333 19.5067 26.92 20 26.8533 21.3333ZM16 9.16C14.6477 9.16263 13.3266 9.56603 12.2035 10.3192C11.0804 11.0724 10.2058 12.1416 9.69014 13.3917C9.17448 14.6417 9.04092 16.0166 9.30635 17.3426C9.57178 18.6685 10.2243 19.886 11.1814 20.8413C12.1385 21.7966 13.3573 22.4467 14.6838 22.7095C16.0102 22.9724 17.3848 22.8361 18.6339 22.318C19.883 21.8 20.9505 20.9232 21.7015 19.7987C22.4525 18.6742 22.8533 17.3523 22.8533 16C22.8551 15.1001 22.6789 14.2088 22.3349 13.3773C21.991 12.5457 21.486 11.7904 20.8491 11.1547C20.2122 10.5191 19.4559 10.0156 18.6237 9.67324C17.7915 9.3309 16.8998 9.15648 16 9.16ZM16 20.44C15.1218 20.44 14.2634 20.1796 13.5332 19.6917C12.8031 19.2038 12.234 18.5104 11.8979 17.6991C11.5619 16.8878 11.474 15.9951 11.6453 15.1338C11.8166 14.2725 12.2395 13.4814 12.8604 12.8604C13.4813 12.2395 14.2725 11.8166 15.1338 11.6453C15.995 11.474 16.8878 11.5619 17.6991 11.898C18.5104 12.234 19.2038 12.8031 19.6917 13.5333C20.1796 14.2634 20.44 15.1218 20.44 16C20.44 16.5831 20.3251 17.1604 20.102 17.6991C19.8789 18.2378 19.5518 18.7273 19.1395 19.1396C18.7272 19.5518 18.2378 19.8789 17.6991 20.102C17.1604 20.3252 16.583 20.44 16 20.44Z" fill="black"/>
</g>
</svg>
